HIERARCHY
ROOT Hips
{
 OFFSET 0.000000 0.000000 0.000000
 CHANNELS 6 Xposition Yposition Zposition Yrotation Xrotation Zrotation
 JOINT Chest
 {
  OFFSET 0.000000 9.585900 0.002600
  CHANNELS 3 Yrotation Xrotation Zrotation
  JOINT Chest2
  {
   OFFSET 0.000000 9.601200 -0.005300
   CHANNELS 3 Yrotation Xrotation Zrotation
   JOINT Chest3
   {
    OFFSET 0.000000 9.561800 0.000000
    CHANNELS 3 Yrotation Xrotation Zrotation
    JOINT Chest4
    {
     OFFSET 0.000000 9.552100 0.000000
     CHANNELS 3 Yrotation Xrotation Zrotation
     JOINT Neck
     {
      OFFSET 0.000000 14.453000 0.000000
      CHANNELS 3 Yrotation Xrotation Zrotation
      JOINT Head
      {
       OFFSET 0.000000 8.936500 -0.011300
       CHANNELS 3 Yrotation Xrotation Zrotation
       End Site
       {
        OFFSET 0.000000 17.073600 -0.006000
       }
      }
     }
     JOINT RightCollar
     {
      OFFSET -2.921100 9.558500 0.000000
      CHANNELS 3 Yrotation Xrotation Zrotation
      JOINT RightShoulder
      {
       OFFSET -13.519700 0.000000 0.000000
       CHANNELS 3 Yrotation Xrotation Zrotation
       JOINT RightElbow
       {
        OFFSET 0.000000 -29.696600 0.000000
        CHANNELS 3 Yrotation Xrotation Zrotation
        JOINT RightWrist
        {
         OFFSET 0.000000 -24.004700 0.000000
         CHANNELS 3 Yrotation Xrotation Zrotation
         End Site
         {
          OFFSET 0.000000 -17.728500 0.000000
         }
        }
       }
      }
     }
     JOINT LeftCollar
     {
      OFFSET 2.921100 9.558500 0.000000
      CHANNELS 3 Yrotation Xrotation Zrotation
      JOINT LeftShoulder
      {
       OFFSET 13.519700 0.000000 0.000000
       CHANNELS 3 Yrotation Xrotation Zrotation
       JOINT LeftElbow
       {
        OFFSET 0.000000 -29.696600 0.000000
        CHANNELS 3 Yrotation Xrotation Zrotation
        JOINT LeftWrist
        {
         OFFSET 0.000000 -24.004700 0.000000
         CHANNELS 3 Yrotation Xrotation Zrotation
         End Site
         {
          OFFSET 0.000000 -17.728500 0.000000
         }
        }
       }
      }
     }
    }
   }
  }
 }
 JOINT RightHip
 {
  OFFSET -7.771700 -0.012900 -0.001300
  CHANNELS 3 Yrotation Xrotation Zrotation
  JOINT RightKnee
  {
   OFFSET 0.000000 -40.869800 0.001200
   CHANNELS 3 Yrotation Xrotation Zrotation
   JOINT RightAnkle
   {
    OFFSET 0.000000 -39.717900 0.002100
    CHANNELS 3 Yrotation Xrotation Zrotation
    JOINT RightToe
    {
     OFFSET 0.000000 -4.965400 11.033500
     CHANNELS 3 Yrotation Xrotation Zrotation
     End Site
     {
      OFFSET 0.000000 -1.423100 5.872300
     }
    }
   }
  }
 }
 JOINT LeftHip
 {
  OFFSET 7.771700 -0.012900 -0.001300
  CHANNELS 3 Yrotation Xrotation Zrotation
  JOINT LeftKnee
  {
   OFFSET 0.000000 -40.869800 0.001200
   CHANNELS 3 Yrotation Xrotation Zrotation
   JOINT LeftAnkle
   {
    OFFSET 0.000000 -39.717900 0.002100
    CHANNELS 3 Yrotation Xrotation Zrotation
    JOINT LeftToe
    {
     OFFSET 0.000000 -4.965400 11.033500
     CHANNELS 3 Yrotation Xrotation Zrotation
     End Site
     {
      OFFSET 0.000000 -1.423100 5.872300
     }
    }
   }
  }
 }
}
MOTION
Frames: 11
Frame Time: 0.008333
0.000000 85.388000 0.000000 0.000000 -5.767877 0.000000 0.000000 11.653817 0.000000 0.000000 -5.885947 0.000000 0.000000 -0.000000 0.000000 0.000000 -0.000000 0.000000 0.000000 12.528835 0.000000 0.000000 0.711642 0.000000 0.000000 -0.000000 0.000000 0.000000 0.000000 -90.000000 0.000000 -2.309062 0.000000 0.000000 2.309062 0.000000 0.000000 -0.000000 0.000000 0.000000 -0.000000 90.000000 0.000000 -2.309062 0.000000 0.000000 2.309062 0.000000 0.000000 8.520406 0.000000 0.000000 1.905762 0.000000 -0.000000 -4.658285 0.000000 0.000000 -0.000000 0.000000 0.000000 8.520406 0.000000 0.000000 1.905762 0.000000 -0.000000 -4.658285 0.000000 0.000000 -0.000000 0.000000
-216.727367 60.487475 -68.513664 156.902589 -23.534500 2.621379 1.922223 13.283275 1.972207 0.129665 1.054168 0.091038 0.220546 1.824419 0.267307 1.619014 11.918544 1.901691 6.439818 18.255152 -6.362067 8.619748 -5.920861 -8.551942 6.460422 3.328925 -2.328356 12.119401 -13.528356 -15.545424 46.786643 -54.698380 -29.627201 12.967028 12.853175 -23.121468 -8.008783 -1.936689 -7.944603 -7.071136 -12.416835 7.474721 -62.733098 -35.244796 50.905913 -11.287101 8.904278 13.341587 -1.325447 -45.851951 6.877907 -18.376088 70.499450 -16.461641 -0.184252 -4.243375 -3.293222 0.014615 -0.295555 -0.176664 9.902166 -45.163834 4.840773 20.228731 63.262582 19.306906 -16.498774 -14.646010 -0.528177 0.154498 0.307697 0.070394
-216.723100 60.482255 -68.508390 156.876224 -23.538001 2.603331 1.956724 13.253314 1.889720 0.132225 1.065852 0.138044 0.224930 1.816351 0.259306 1.647123 11.895745 1.855476 6.403099 18.202811 -6.465760 8.606626 -5.974741 -8.661391 6.408178 3.289195 -2.285102 12.041806 -13.531536 -15.382955 46.662931 -54.562068 -29.504661 12.941111 12.777007 -23.161350 -8.001310 -1.920551 -7.901992 -6.910857 -12.385823 7.429541 -62.768916 -35.322688 50.935454 -11.260071 8.816149 13.468202 -1.318913 -45.850915 6.882462 -18.352153 70.502778 -16.363418 -0.215006 -4.232901 -3.323279 0.060959 -0.290958 -0.156600 9.908858 -45.183772 4.878768 20.206701 63.303257 19.280896 -16.435490 -14.653698 -0.501398 0.130188 0.309982 0.055981
-216.725784 60.474882 -68.502620 156.826067 -23.536460 2.636380 2.000772 13.250513 1.861284 0.136278 1.051147 0.094435 0.229302 1.810317 0.252556 1.675361 11.878431 1.816432 6.354882 18.149999 -6.571617 8.580905 -6.029835 -8.770354 6.352752 3.251855 -2.252033 11.968781 -13.501493 -15.242974 46.580760 -54.469102 -29.439654 12.916521 12.703034 -23.206390 -7.987006 -1.903874 -7.860909 -6.746500 -12.337943 7.393948 -62.859097 -35.430826 50.983412 -11.247389 8.718103 13.579915 -1.226207 -45.865746 6.792154 -18.321366 70.518089 -16.232255 -0.216978 -4.226336 -3.375812 0.086255 -0.284258 -0.132989 9.973474 -45.195638 4.868238 20.150031 63.347502 19.202206 -16.407233 -14.661705 -0.457435 0.086001 0.309973 0.038897
-216.726739 60.465657 -68.494593 156.778163 -23.545301 2.657907 2.047959 13.246798 1.805330 0.134087 1.048449 0.096080 0.232740 1.815846 0.275076 1.696230 11.858133 1.754448 6.302046 18.096424 -6.677310 8.549767 -6.086067 -8.877909 6.295115 3.217244 -2.229193 11.890502 -13.457373 -15.118762 46.547720 -54.405406 -29.413675 12.887437 12.630218 -23.268224 -7.964546 -1.886088 -7.822450 -6.574692 -12.280122 7.366437 -62.995193 -35.566363 51.040917 -11.243905 8.608437 13.677751 -1.172462 -45.880907 6.723924 -18.315437 70.540475 -16.101533 -0.266967 -4.153363 -3.458095 0.182198 -0.352421 -0.133673 10.022866 -45.202425 4.869324 20.133029 63.371325 19.186181 -16.435047 -14.705604 -0.448880 0.028864 0.354114 0.027315
-216.727826 60.452782 -68.480490 156.772264 -23.541175 2.652005 2.048414 13.214298 1.718376 0.141313 1.068623 0.164275 0.235638 1.813141 0.271810 1.711086 11.845205 1.701459 6.249672 18.042788 -6.779932 8.518371 -6.142558 -8.982087 6.236458 3.188585 -2.217719 11.810317 -13.408683 -15.011440 46.555054 -54.370994 -29.412079 12.854714 12.562871 -23.352316 -7.932137 -1.865820 -7.787205 -6.394184 -12.217282 7.347241 -63.167780 -35.727909 51.103716 -11.246383 8.489254 13.765422 -1.206886 -45.900073 6.718967 -18.301848 70.548274 -16.028703 -0.279282 -4.122699 -3.492731 0.229282 -0.361229 -0.119328 10.039198 -45.247625 4.874462 20.124840 63.409289 19.200655 -16.508938 -14.683660 -0.450036 -0.033775 0.331069 0.013469
-216.730135 60.437596 -68.463656 156.775379 -23.541450 2.643868 2.039075 13.202395 1.684219 0.148063 1.073210 0.178499 0.237329 1.803662 0.242035 1.724924 11.842822 1.686037 6.201119 17.990257 -6.878798 8.490464 -6.197697 -9.083203 6.183143 3.169656 -2.217354 11.730144 -13.362054 -14.925598 46.610181 -54.377002 -29.427750 12.815589 12.524888 -23.461911 -7.899576 -1.843549 -7.748142 -6.198629 -12.151257 7.328515 -63.359052 -35.912845 51.168777 -11.251747 8.359573 13.848999 -1.256840 -45.908578 6.727641 -18.303268 70.544485 -15.993648 -0.269731 -4.112485 -3.537174 0.248332 -0.332179 -0.040189 10.063025 -45.294323 4.861641 20.110173 63.449200 19.213256 -16.519861 -14.656022 -0.440046 -0.087597 0.306105 -0.007634
-216.729635 60.417529 -68.436518 156.824433 -23.511648 2.577003 1.997771 13.157396 1.695469 0.148862 1.072214 0.172558 0.240065 1.802006 0.237885 1.738751 11.847991 1.698026 6.144502 17.935461 -7.004974 8.467677 -6.252304 -9.180747 6.130211 3.155822 -2.252827 11.654760 -13.319189 -14.867683 46.674168 -54.382839 -29.439100 12.768167 12.476420 -23.586981 -7.849441 -1.825664 -7.745027 -6.022732 -12.083656 7.323671 -63.550037 -36.115570 51.231329 -11.249420 8.216547 13.936975 -1.366727 -45.945750 6.791147 -18.357389 70.527113 -16.001047 -0.255987 -4.104616 -3.577692 0.274211 -0.313085 -0.015482 10.071181 -45.417888 4.837654 20.153532 63.499767 19.311280 -16.397725 -14.570457 -0.408012 -0.100552 0.238351 -0.036737
-216.731148 60.397003 -68.410757 156.825263 -23.505246 2.542000 1.996127 13.138116 1.698667 0.150192 1.072449 0.165928 0.241493 1.800918 0.234441 1.744700 11.847045 1.664594 6.111805 17.883802 -7.076916 8.447228 -6.308476 -9.272453 6.084146 3.150382 -2.243075 11.588646 -13.280806 -14.839588 46.742478 -54.384141 -29.444132 12.712659 12.417351 -23.716096 -7.776902 -1.785910 -7.706624 -5.874172 -12.019220 7.336188 -63.733137 -36.332936 51.290056 -11.229949 8.062094 14.038136 -1.568109 -45.956570 6.884940 -18.171710 70.536495 -15.846251 -0.147056 -4.100431 -3.551339 0.214134 -0.289507 -0.100755 10.104071 -45.484356 4.820181 20.191376 63.530916 19.392205 -16.271480 -14.525657 -0.390270 -0.069864 0.201643 -0.047208
-216.737136 60.378693 -68.393272 156.797107 -23.556471 2.560947 2.007786 13.180330 1.664060 0.153678 1.070130 0.160059 0.242743 1.801226 0.230875 1.749197 11.851711 1.633612 6.081220 17.829999 -7.144499 8.428162 -6.366118 -9.358762 6.036369 3.146599 -2.235760 11.530046 -13.246759 -14.839468 46.838832 -54.411505 -29.450429 12.652570 12.383615 -23.848424 -7.712338 -1.745580 -7.666593 -5.729724 -11.958954 7.353214 -63.901444 -36.567274 51.344782 -11.195581 7.897914 14.160536 -1.662746 -45.913415 6.910332 -18.013046 70.550207 -15.725856 -0.097678 -4.091097 -3.539131 0.182114 -0.268671 -0.112632 10.144022 -45.451078 4.801830 20.209258 63.539136 19.418984 -16.180579 -14.555016 -0.380276 -0.045129 0.233388 -0.048980
-216.741587 60.353993 -68.361190 156.795426 -23.541216 2.525881 2.009921 13.154582 1.674667 0.149854 1.070029 0.155877 0.244452 1.802313 0.227609 1.761652 11.857220 1.619286 6.047137 17.776483 -7.222541 8.411226 -6.422727 -9.440320 5.986505 3.146271 -2.245474 11.476380 -13.218726 -14.863632 46.935988 -54.446892 -29.443969 12.586550 12.341153 -23.927496 -7.679795 -1.723765 -7.634115 -5.570076 -11.887834 7.368144 -64.043461 -36.819659 51.391769 -11.147717 7.723440 14.308534 -1.799817 -45.941930 6.986924 -17.977728 70.536414 -15.683814 -0.046323 -4.054270 -3.552702 0.171670 -0.252714 -0.100450 10.283899 -45.561751 4.716375 20.175032 63.597291 19.506252 -16.105318 -14.498607 -0.365215 -0.082119 0.186243 -0.065333
